<?xml version="1.0" encoding="iso-8859-1"?>
<!-- Generator: Adobe Illustrator 16.0.4, SVG Export Plug-In . SVG Version: 6.00 Build 0)  -->
<!DOCTYPE svg PUBLIC "-//W3C//DTD SVG 1.1//EN" "http://www.w3.org/Graphics/SVG/1.1/DTD/svg11.dtd">
<svg version="1.1" id="Layer_1" xmlns="http://www.w3.org/2000/svg" xmlns:xlink="http://www.w3.org/1999/xlink" x="0px" y="0px"
	 width="175.491px" height="196.086px" viewBox="0 0 175.491 196.086" style="enable-background:new 0 0 175.491 196.086;"
	 xml:space="preserve">
<g>
	<path style="fill:none;stroke:#000000;stroke-miterlimit:10;" d="M87.915,75.443c13.654,0,24.896-15.077,26.349-34.453
		c0.181-1.252,0.278-2.529,0.297-3.83l-4.261,4.894c2.348-5.205-6.023-18.457-6.023-18.457c-14.111,10.207-35.093,0-35.093,0
		c-6.33,2.497-3.333,20.305-3.333,20.308c-1.579-1.104-3.025-1.675-4.211-1.977C63.383,60.853,74.48,75.443,87.915,75.443z"/>
	<path style="fill:none;stroke:#000000;stroke-miterlimit:10;" d="M31.293,98.263H18.032c-4.085,0-7.398,3.275-7.398,7.31
		l14.938,68.188c0,4.035,3.311,7.31,7.395,7.31h109.562c4.085,0,7.395-3.274,7.395-7.31l14.939-68.188
		c0-4.034-3.31-7.309-7.396-7.309h-12.938 M87.749,144.296c-2.194,0-3.971-1.779-3.971-3.974c0-2.189,1.777-3.971,3.971-3.971
		c2.193,0,3.969,1.781,3.969,3.971C91.718,142.517,89.942,144.296,87.749,144.296z"/>
	<path style="fill:none;stroke:#000000;stroke-miterlimit:10;" d="M98.389,98.263h-7.275"/>
	<path style="stroke:#000000;stroke-miterlimit:10;" d="M57.899,40.83c0.022,0.286,0.045,0.571,0.071,0.854
		c1.919,21.663,14.592,38.401,29.945,38.401c15.549,0,28.354-17.174,30.012-39.247c0.229-1.585,0.35-3.206,0.35-4.86
		s-0.117-3.277-0.35-4.866C115.7,15.775,103.11,4.02,87.915,4.02c-15.204,0-27.796,11.763-30.016,27.111
		c-0.229,1.58-0.347,3.202-0.347,4.852c0,0.668,0.025,1.33,0.062,1.989C57.67,38.938,57.762,39.89,57.899,40.83z M69.187,23.597
		c0,0,20.98,10.207,35.092,0c0,0,8.371,13.252,6.021,18.457l4.261-4.894c-0.019,1.298-0.115,2.578-0.297,3.83
		c-1.452,19.376-12.692,34.453-26.349,34.453c-13.431,0-24.531-14.592-26.274-33.516c1.185,0.297,2.634,0.872,4.214,1.974
		C65.85,43.901,62.854,26.094,69.187,23.597z"/>
	<path style="stroke:#000000;stroke-miterlimit:10;" d="M111.999,75.047c-0.081,3.631-6.428,13.287-12.732,22.006h44.684
		C137.995,84.954,126.06,76.333,111.999,75.047z"/>
	<path style="stroke:#000000;stroke-miterlimit:10;" d="M90.62,91.152c2.787-1.441,4.949-4.438,4.949-7.488
		c0,0-4.15,1.833-8.374,1.833c-4.231,0-8.378-1.833-8.378-1.833c0,3.05,2.161,6.045,4.948,7.488l-0.409,5.902h7.676L90.62,91.152z"
		/>
	<path style="stroke:#000000;stroke-miterlimit:10;" d="M63.831,75.047c-14.065,1.282-25.999,9.905-31.958,22.006h43.577
		C69.7,88.334,63.91,78.678,63.831,75.047z"/>
	<g>
		<circle style="stroke:#000000;stroke-miterlimit:10;" cx="87.749" cy="140.322" r="3.97"/>
		<path d="M150.454,185.914H25.046c-1.769,0-3.198-0.314-3.198,1.447c0,1.765,1.43,2.322,3.198,2.322h125.408
			c1.766,0,3.195-0.558,3.195-2.322C153.646,185.6,152.22,185.914,150.454,185.914z"/>
	</g>
	<path style="stroke:#000000;stroke-miterlimit:10;" d="M98.389,98.263c0.293-0.399,0.583-0.809,0.878-1.208H91.03l0.083,1.208
		H98.389z"/>
	<path style="stroke:#000000;stroke-miterlimit:10;" d="M83.271,98.263l0.085-1.208h-7.906c0.269,0.405,0.533,0.809,0.806,1.208
		H83.271z"/>
	<path style="stroke:#000000;stroke-miterlimit:10;" d="M32.294,182.276h110.911c4.124,0,7.468-3.343,7.468-7.467l14.936-70.288
		c0-4.123-3.344-7.467-7.467-7.467H143.95c0.201,0.397,0.397,0.802,0.582,1.208h12.936c4.085,0,7.395,3.275,7.395,7.31
		l-14.938,68.188c0,4.035-3.312,7.31-7.394,7.31H32.967c-4.084,0-7.395-3.274-7.395-7.31l-14.939-68.188
		c0-4.038,3.311-7.31,7.397-7.31h13.263c0.183-0.409,0.38-0.811,0.58-1.208H17.356c-4.126,0-7.47,3.342-7.47,7.467l14.937,70.289
		C24.823,178.934,28.168,182.276,32.294,182.276z"/>
	<path style="stroke:#000000;stroke-miterlimit:10;" d="M76.255,98.263c-0.271-0.399-0.537-0.803-0.806-1.208H31.874
		c-0.199,0.397-0.396,0.802-0.58,1.208H76.255z"/>
	<polygon style="stroke:#000000;stroke-miterlimit:10;" points="91.113,98.263 91.03,97.055 83.355,97.055 83.271,98.263 	"/>
	<path style="stroke:#000000;stroke-miterlimit:10;" d="M144.532,98.263c-0.185-0.409-0.381-0.811-0.582-1.208H99.267
		c-0.295,0.404-0.589,0.811-0.878,1.208H144.532z"/>
</g>
</svg>
