<?xml version="1.0" encoding="iso-8859-1"?>
<!-- Generator: Adobe Illustrator 16.0.4, SVG Export Plug-In . SVG Version: 6.00 Build 0)  -->
<!DOCTYPE svg PUBLIC "-//W3C//DTD SVG 1.1//EN" "http://www.w3.org/Graphics/SVG/1.1/DTD/svg11.dtd">
<svg version="1.1" id="Layer_1" xmlns="http://www.w3.org/2000/svg" xmlns:xlink="http://www.w3.org/1999/xlink" x="0px" y="0px"
	 width="175.491px" height="196.086px" viewBox="0 0 175.491 196.086" style="enable-background:new 0 0 175.491 196.086;"
	 xml:space="preserve">
<g>
	<path style="fill:none;stroke:#FFFFFF;stroke-miterlimit:10;" d="M87.415,74.943c13.654,0,24.896-15.077,26.349-34.453
		c0.181-1.252,0.278-2.529,0.297-3.83l-4.261,4.894c2.348-5.205-6.023-18.457-6.023-18.457c-14.111,10.207-35.093,0-35.093,0
		c-6.33,2.497-3.333,20.305-3.333,20.308c-1.579-1.104-3.025-1.675-4.211-1.977C62.883,60.353,73.98,74.943,87.415,74.943z"/>
	<path style="fill:none;stroke:#FFFFFF;stroke-miterlimit:10;" d="M30.793,97.763H17.532c-4.085,0-7.398,3.275-7.398,7.31
		l14.938,68.188c0,4.035,3.311,7.31,7.395,7.31h109.562c4.085,0,7.395-3.274,7.395-7.31l14.939-68.188
		c0-4.034-3.31-7.309-7.396-7.309h-12.938 M87.249,143.796c-2.194,0-3.971-1.779-3.971-3.974c0-2.189,1.777-3.971,3.971-3.971
		c2.193,0,3.969,1.781,3.969,3.971C91.218,142.017,89.442,143.796,87.249,143.796z"/>
	<path style="fill:none;stroke:#FFFFFF;stroke-miterlimit:10;" d="M97.889,97.763h-7.275"/>
	<path style="fill:#FFFFFF;stroke:#FFFFFF;stroke-miterlimit:10;" d="M57.399,40.33c0.022,0.286,0.045,0.571,0.071,0.854
		c1.919,21.663,14.592,38.401,29.945,38.401c15.549,0,28.354-17.174,30.012-39.247c0.229-1.585,0.35-3.206,0.35-4.86
		s-0.117-3.277-0.35-4.866C115.2,15.275,102.61,3.52,87.415,3.52c-15.204,0-27.796,11.763-30.016,27.111
		c-0.229,1.58-0.347,3.202-0.347,4.852c0,0.668,0.025,1.33,0.062,1.989C57.17,38.438,57.262,39.39,57.399,40.33z M68.687,23.097
		c0,0,20.98,10.207,35.092,0c0,0,8.371,13.252,6.021,18.457l4.261-4.894c-0.019,1.298-0.115,2.578-0.297,3.83
		c-1.452,19.376-12.692,34.453-26.349,34.453c-13.431,0-24.531-14.592-26.274-33.516c1.185,0.297,2.634,0.872,4.214,1.974
		C65.35,43.401,62.354,25.594,68.687,23.097z"/>
	<path style="fill:#FFFFFF;stroke:#FFFFFF;stroke-miterlimit:10;" d="M111.499,74.547c-0.081,3.631-6.428,13.287-12.732,22.006
		h44.684C137.495,84.454,125.56,75.833,111.499,74.547z"/>
	<path style="fill:#FFFFFF;stroke:#FFFFFF;stroke-miterlimit:10;" d="M90.12,90.652c2.787-1.441,4.949-4.438,4.949-7.488
		c0,0-4.15,1.833-8.374,1.833c-4.231,0-8.378-1.833-8.378-1.833c0,3.05,2.161,6.045,4.948,7.488l-0.409,5.902h7.676L90.12,90.652z"
		/>
	<path style="fill:#FFFFFF;stroke:#FFFFFF;stroke-miterlimit:10;" d="M63.331,74.547c-14.065,1.282-25.999,9.905-31.958,22.006
		h43.577C69.2,87.834,63.41,78.178,63.331,74.547z"/>
	<g>
		<circle style="fill:#FFFFFF;stroke:#FFFFFF;stroke-miterlimit:10;" cx="87.249" cy="139.822" r="3.97"/>
		<path style="fill:#FFFFFF;" d="M149.954,185.414H24.546c-1.769,0-3.198-0.314-3.198,1.447c0,1.765,1.43,2.322,3.198,2.322h125.408
			c1.766,0,3.195-0.558,3.195-2.322C153.146,185.1,151.72,185.414,149.954,185.414z"/>
	</g>
	<path style="fill:#FFFFFF;stroke:#FFFFFF;stroke-miterlimit:10;" d="M97.889,97.763c0.293-0.399,0.583-0.809,0.878-1.208H90.53
		l0.083,1.208H97.889z"/>
	<path style="fill:#FFFFFF;stroke:#FFFFFF;stroke-miterlimit:10;" d="M82.771,97.763l0.085-1.208h-7.906
		c0.269,0.405,0.533,0.809,0.806,1.208H82.771z"/>
	<path style="fill:#FFFFFF;stroke:#FFFFFF;stroke-miterlimit:10;" d="M31.794,181.776h110.911c4.124,0,7.468-3.343,7.468-7.467
		l14.936-70.288c0-4.123-3.344-7.467-7.467-7.467H143.45c0.201,0.397,0.397,0.802,0.582,1.208h12.936
		c4.085,0,7.395,3.275,7.395,7.31l-14.938,68.188c0,4.035-3.312,7.31-7.394,7.31H32.467c-4.084,0-7.395-3.274-7.395-7.31
		l-14.939-68.188c0-4.038,3.311-7.31,7.397-7.31h13.263c0.183-0.409,0.38-0.811,0.58-1.208H16.856c-4.126,0-7.47,3.342-7.47,7.467
		l14.937,70.289C24.323,178.434,27.668,181.776,31.794,181.776z"/>
	<path style="fill:#FFFFFF;stroke:#FFFFFF;stroke-miterlimit:10;" d="M75.755,97.763c-0.271-0.399-0.537-0.803-0.806-1.208H31.374
		c-0.199,0.397-0.396,0.802-0.58,1.208H75.755z"/>
	<polygon style="fill:#FFFFFF;stroke:#FFFFFF;stroke-miterlimit:10;" points="90.613,97.763 90.53,96.555 82.855,96.555 
		82.771,97.763 	"/>
	<path style="fill:#FFFFFF;stroke:#FFFFFF;stroke-miterlimit:10;" d="M144.032,97.763c-0.185-0.409-0.381-0.811-0.582-1.208H98.767
		c-0.295,0.404-0.589,0.811-0.878,1.208H144.032z"/>
</g>
</svg>
