<?xml version="1.0" encoding="iso-8859-1"?>
<!-- Generator: Adobe Illustrator 16.0.4, SVG Export Plug-In . SVG Version: 6.00 Build 0)  -->
<!DOCTYPE svg PUBLIC "-//W3C//DTD SVG 1.1//EN" "http://www.w3.org/Graphics/SVG/1.1/DTD/svg11.dtd">
<svg version="1.1" id="Layer_1" xmlns="http://www.w3.org/2000/svg" xmlns:xlink="http://www.w3.org/1999/xlink" x="0px" y="0px"
	 width="175.491px" height="196.086px" viewBox="0 0 175.491 196.086" style="enable-background:new 0 0 175.491 196.086;"
	 xml:space="preserve">
<path style="fill:#FFFFFF;" d="M164.475,96.348h-6.849V55.816c0-2.014-1.525-3.144-3.534-3.144H12.937
	c-2.014,0-3.806,1.13-3.806,3.144v79.545c0,2.014,1.792,4.66,3.806,4.66h54.016l-1.582,11.878l-5.311,0.938
	c-0.34,0.08-0.566,0.305-0.525,0.651c0.039,0.351,0.332,0.512,0.685,0.512h44.122c0.351,0,0.646-0.323,0.687-0.666
	c0.04-0.348-0.188-0.717-0.528-0.799l-5.312-0.682l-1.577-11.832h12.849v11.675c0,1.245,0.829,2.304,2.076,2.304h12.254h3.959
	h35.728c1.145,0,1.886-0.969,1.886-2.113V98.636C166.36,97.492,165.619,96.348,164.475,96.348z M82.415,55.465
	c0.304,0,0.551,0.252,0.551,0.555c0,0.305-0.248,0.553-0.551,0.553c-0.305,0-0.556-0.248-0.556-0.553
	C81.859,55.717,82.11,55.465,82.415,55.465z M110.458,115.121v1.616l0,0v1.749l0,0v1.745l0,0v1.748l0,0v1.747l0,0v1.746l0,0v4.068
	H14.372V59.66h138.012v36.688h-27.596c-1.146,0-2.103,1.145-2.103,2.288v15.184h-10.151
	C111.287,113.819,110.458,113.873,110.458,115.121z M145.145,99.693c0,0.299-0.243,0.541-0.542,0.541
	c-0.3,0-0.542-0.242-0.542-0.541s0.242-0.541,0.542-0.541C144.901,99.152,145.145,99.395,145.145,99.693z M122.472,116.248
	c0,0.237-0.188,0.428-0.421,0.428l-2.643-0.003c-0.229,0-0.422-0.19-0.422-0.426c0-0.234,0.191-0.428,0.422-0.428h2.643
	C122.283,115.819,122.472,116.016,122.472,116.248z M117.668,116.258c0,0.233-0.189,0.421-0.418,0.421
	c-0.237,0-0.426-0.188-0.426-0.421s0.188-0.424,0.426-0.424C117.479,115.835,117.668,116.024,117.668,116.258z M120.812,152.015
	c-1.016,0-1.843-0.825-1.843-1.842c0-1.018,0.827-1.845,1.843-1.845c1.018,0,1.844,0.827,1.844,1.845
	C122.655,151.189,121.828,152.015,120.812,152.015z M129.673,147.01h-17.47v-26.203h17.47V147.01z M144.603,152.314
	c-0.703,0-1.276-0.572-1.276-1.274c0-0.706,0.573-1.275,1.276-1.275c0.705,0,1.276,0.569,1.276,1.275
	C145.879,151.742,145.308,152.314,144.603,152.314z M162.866,148.759h-31.445v-33.638c0-1.248-1.422-1.302-2.674-1.302h-0.822
	v-10.483h34.941V148.759z"/>
</svg>
