<?xml version="1.0" encoding="iso-8859-1"?>
<!-- Generator: Adobe Illustrator 16.0.4, SVG Export Plug-In . SVG Version: 6.00 Build 0)  -->
<!DOCTYPE svg PUBLIC "-//W3C//DTD SVG 1.1//EN" "http://www.w3.org/Graphics/SVG/1.1/DTD/svg11.dtd">
<svg version="1.1" id="Layer_1" xmlns="http://www.w3.org/2000/svg" xmlns:xlink="http://www.w3.org/1999/xlink" x="0px" y="0px"
	 width="175.491px" height="196.086px" viewBox="0 0 175.491 196.086" style="enable-background:new 0 0 175.491 196.086;"
	 xml:space="preserve">
<g id="stopwatch_1_">
	<path style="fill:none;stroke:#000000;stroke-width:4;stroke-miterlimit:10;" d="M85.716,42.216
		c-39.872,0-72.31,32.438-72.31,72.31c0,39.873,32.438,72.311,72.31,72.311c39.874,0,72.312-32.438,72.312-72.311
		C158.028,74.654,125.59,42.216,85.716,42.216z M85.716,167.115c-28.998,0-52.589-23.593-52.589-52.59
		c0-28.998,23.591-52.589,52.589-52.589c28.997,0,52.592,23.591,52.592,52.589C138.308,143.522,114.713,167.115,85.716,167.115z
		 M98.865,114.525c0,4.854-2.659,9.045-6.574,11.322v5.858c0,1.809-1.479,3.428-3.288,3.428h-6.575
		c-1.811,0-3.284-1.619-3.284-3.428v-5.858c-3.917-2.277-6.575-6.468-6.575-11.322c0-4.853,2.657-9.047,6.575-11.324V79.254
		c0-1.808,1.474-3.283,3.284-3.283h6.575c1.81,0,3.288,1.476,3.288,3.283v23.947C96.206,105.479,98.865,109.673,98.865,114.525z
		 M85.716,29.336c-3.337,0-9.91,0.232-13.147,0.615V13.725c0-1.811,1.477-3.492,3.286-3.492h19.723c1.809,0,3.288,1.682,3.288,3.492
		v16.227C95.628,29.568,89.054,29.336,85.716,29.336z M162.131,54.009l-9.734,9.726c-2.007-2.558-4.179-5.04-6.539-7.402
		c-2.358-2.357-4.842-4.525-7.403-6.542l9.727-9.723c1.284-1.279,3.376-1.279,4.652,0l9.298,9.294
		C163.405,50.638,163.405,52.73,162.131,54.009z"/>
</g>
</svg>
