<?xml version="1.0" encoding="iso-8859-1"?>
<!-- Generator: Adobe Illustrator 16.0.4, SVG Export Plug-In . SVG Version: 6.00 Build 0)  -->
<!DOCTYPE svg PUBLIC "-//W3C//DTD SVG 1.1//EN" "http://www.w3.org/Graphics/SVG/1.1/DTD/svg11.dtd">
<svg version="1.1" id="Layer_1" xmlns="http://www.w3.org/2000/svg" xmlns:xlink="http://www.w3.org/1999/xlink" x="0px" y="0px"
	 width="175.491px" height="196.086px" viewBox="0 0 175.491 196.086" style="enable-background:new 0 0 175.491 196.086;"
	 xml:space="preserve">
<g id="stopwatch_1_">
	<path style="fill:none;stroke:#FFFFFF;stroke-width:4;stroke-miterlimit:10;" d="M84.707,42.302
		c-39.872,0-72.31,32.438-72.31,72.31c0,39.873,32.438,72.311,72.31,72.311c39.874,0,72.312-32.438,72.312-72.311
		C157.02,74.74,124.581,42.302,84.707,42.302z M84.707,167.201c-28.998,0-52.589-23.593-52.589-52.59
		c0-28.998,23.591-52.589,52.589-52.589c28.997,0,52.592,23.591,52.592,52.589C137.299,143.608,113.704,167.201,84.707,167.201z
		 M97.856,114.611c0,4.854-2.659,9.045-6.574,11.322v5.858c0,1.809-1.479,3.428-3.288,3.428h-6.575
		c-1.811,0-3.284-1.619-3.284-3.428v-5.858c-3.918-2.277-6.574-6.468-6.574-11.322c0-4.853,2.656-9.047,6.574-11.324V79.34
		c0-1.808,1.474-3.283,3.284-3.283h6.575c1.81,0,3.288,1.476,3.288,3.283v23.947C95.197,105.564,97.856,109.759,97.856,114.611z
		 M84.707,29.422c-3.338,0-9.91,0.232-13.146,0.615V13.811c0-1.811,1.477-3.492,3.285-3.492h19.723c1.809,0,3.288,1.682,3.288,3.492
		v16.227C94.619,29.654,88.045,29.422,84.707,29.422z M161.122,54.095l-9.734,9.726c-2.007-2.558-4.179-5.04-6.539-7.402
		c-2.358-2.357-4.842-4.525-7.403-6.542l9.727-9.723c1.284-1.279,3.376-1.279,4.652,0l9.298,9.294
		C162.396,50.724,162.396,52.816,161.122,54.095z"/>
</g>
</svg>
